<svg width="27" height="27" viewBox="0 0 27 27" fill="none" xmlns="http://www.w3.org/2000/svg">
<path d="M23.2234 9.75135L15.702 3.73858C14.5407 2.80519 12.663 2.80519 11.5126 3.72772L3.99117 9.75135C3.14461 10.4243 2.60194 11.846 2.78645 12.9096L4.22995 21.5489C4.49043 23.0901 5.96649 24.3382 7.52938 24.3382H19.6852C21.2372 24.3382 22.7241 23.0793 22.9846 21.5489L24.4281 12.9096C24.6018 11.846 24.0591 10.4243 23.2234 9.75135ZM13.6073 17.4898C12.1095 17.4898 10.8939 16.2742 10.8939 14.7764C10.8939 13.2786 12.1095 12.0631 13.6073 12.0631C15.105 12.0631 16.3206 13.2786 16.3206 14.7764C16.3206 16.2742 15.105 17.4898 13.6073 17.4898Z" fill="#C4C4C4"/>
</svg>
